<svg width="2200" height="1300" viewBox="0 0 2200 1300" fill="none" xmlns="http://www.w3.org/2000/svg">
  <defs>
    <linearGradient id="sky" x1="1100" y1="0" x2="1100" y2="1300" gradientUnits="userSpaceOnUse">
      <stop offset="0" stop-color="#CDE8FF"/>
      <stop offset="0.45" stop-color="#EAF5FF"/>
      <stop offset="1" stop-color="#FFF7ED"/>
    </linearGradient>
  </defs>

  <rect width="2200" height="1300" fill="url(#sky)"/>

  <rect x="0" y="60" width="2200" height="170" fill="#8CC8FF" fill-opacity="0.45"/>
  <rect x="0" y="450" width="2200" height="120" fill="#FDBA74" fill-opacity="0.5"/>

  <circle cx="300" cy="250" r="95" fill="#93C5FD" fill-opacity="0.6"/>
  <circle cx="560" cy="180" r="60" fill="#BAE6FD" fill-opacity="0.75"/>
  <circle cx="1900" cy="210" r="85" fill="#FBCFE8" fill-opacity="0.6"/>

  <path d="M0 1020C180 940 330 900 500 910C740 924 840 1042 1070 1042C1270 1042 1370 960 1600 935C1810 911 1960 965 2200 1090V1300H0V1020Z" fill="#4D7C0F" fill-opacity="0.35"/>
  <path d="M0 1088C190 1008 390 985 620 1000C840 1013 980 1110 1215 1110C1420 1110 1560 1028 1785 1012C1940 1001 2080 1030 2200 1090V1300H0V1088Z" fill="#15803D" fill-opacity="0.45"/>

  <rect x="0" y="1185" width="2200" height="115" fill="#065F46" fill-opacity="0.65"/>
</svg>
